<?xml version="1.0"?>
<svg width="1280" height="1280" xmlns="http://www.w3.org/2000/svg" xmlns:svg="http://www.w3.org/2000/svg" preserveAspectRatio="xMidYMid meet">
 <metadata>Created by potrace 1.15, written by Peter Selinger 2001-2017</metadata>

 <g class="layer">
  <title>Layer 1</title>
  <path d="m55.000001,33.499981c-10.5,3.5 -20,14.1 -22.2,24.8c-4.3,20.6 16.3,41.200001 36.900001,36.900001c15.5,-3.2 27.5,-19 26,-33.900001c-1.1,-10.5 -9,-21.3 -19,-26.2c-6.1,-2.9 -15.5,-3.6 -21.7,-1.6z" fill="#40e0d0" id="svg_2"/>
  <path d="m183.000003,33.499981c-15.1,5 -25.3,21.6 -22.2,36.200001c2.5,11.9 13.6,23 25.4,25.5c19.4,4.1 39.500001,-14.2 37.500001,-33.900001c-1.1,-10.5 -9,-21.3 -19,-26.2c-6.1,-2.9 -15.5,-3.6 -21.7,-1.6z" fill="#40e0d0" id="svg_3"/>
  <path d="m311.000005,33.499981c-10.5,3.5 -20,14.1 -22.2,24.8c-4.3,20.6 16.3,41.200001 36.900001,36.900001c15.5,-3.2 27.5,-19 26,-33.900001c-1.1,-10.5 -9,-21.3 -19,-26.2c-6.1,-2.9 -15.5,-3.6 -21.7,-1.6z" fill="#40e0d0" id="svg_4"/>
  <path d="m439.000007,33.499981c-10.5,3.5 -20,14.1 -22.2,24.8c-4.3,20.6 16.3,41.200001 36.900001,36.900001c15.5,-3.2 27.5,-19 26,-33.900001c-1.1,-10.5 -9,-21.3 -19,-26.2c-6.1,-2.9 -15.5,-3.6 -21.7,-1.6z" fill="#40e0d0" id="svg_5"/>
  <path d="m567.000008,33.499981c-10.5,3.5 -20,14.1 -22.2,24.8c-4.3,20.6 16.3,41.200001 36.900001,36.900001c15.5,-3.2 27.5,-19 26,-33.900001c-1.1,-10.5 -9,-21.3 -19,-26.2c-6.1,-2.9 -15.5,-3.6 -21.7,-1.6z" fill="#40e0d0" id="svg_6"/>
  <path d="m695.00001,33.499981c-10.5,3.5 -20,14.1 -22.2,24.8c-4.3,20.6 16.3,41.200001 36.900001,36.900001c15.5,-3.2 27.5,-19 26,-33.900001c-1.1,-10.5 -9,-21.3 -19,-26.2c-6.1,-2.9 -15.5,-3.6 -21.7,-1.6z" fill="#40e0d0" id="svg_7"/>
  <path d="m823.000012,33.499981c-10.5,3.5 -20,14.1 -22.2,24.8c-4.3,20.6 16.3,41.200001 36.900001,36.900001c15.5,-3.2 27.5,-19 26,-33.900001c-1.1,-10.5 -9,-21.3 -19,-26.2c-6.1,-2.9 -15.5,-3.6 -21.7,-1.6z" fill="#40e0d0" id="svg_8"/>
  <path d="m951.000014,33.499981c-10.5,3.5 -20,14.1 -22.2,24.8c-4.3,20.6 16.3,41.200001 36.900001,36.900001c15.5,-3.2 27.5,-19 26,-33.900001c-1.1,-10.5 -9,-21.3 -19,-26.2c-6.1,-2.9 -15.5,-3.6 -21.7,-1.6z" fill="#40e0d0" id="svg_9"/>
  <path d="m1079.000016,33.499981c-10.5,3.5 -20,14.1 -22.2,24.8c-2.5,11.7 3.2,24.4 14.2,31.9c10.7,7.4 22.9,7.5 33.700001,0.3c17.7,-11.8 20.1,-33.800001 5.3,-48.500001c-8.5,-8.6 -20.7,-11.9 -31,-8.5z" fill="#40e0d0" id="svg_10"/>
  <path d="m1207.000018,33.499981c-10.5,3.5 -20,14.1 -22.2,24.8c-2.5,11.7 3.2,24.4 14.2,31.9c10.7,7.4 22.9,7.5 33.700001,0.3c17.7,-11.8 20.1,-33.800001 5.3,-48.500001c-8.5,-8.6 -20.7,-11.9 -31,-8.5z" fill="#40e0d0" id="svg_11"/>
  <path d="m55.000001,161.499983c-10.5,3.5 -20,14.1 -22.2,24.8c-4.3,20.6 16.3,41.200001 36.900001,36.900001c15.5,-3.2 27.5,-19 26,-33.900001c-1.1,-10.5 -9,-21.3 -19,-26.2c-6.1,-2.9 -15.5,-3.6 -21.7,-1.6z" fill="#40e0d0" id="svg_12"/>
  <path d="m183.000003,161.499983c-15.1,5 -25.3,21.6 -22.2,36.200001c2.5,11.9 13.6,23 25.4,25.5c19.4,4.1 39.500001,-14.2 37.500001,-33.900001c-1.1,-10.5 -9,-21.3 -19,-26.2c-6.1,-2.9 -15.5,-3.6 -21.7,-1.6z" fill="#40e0d0" id="svg_13"/>
  <path d="m311.000005,161.499983c-10.5,3.5 -20,14.1 -22.2,24.8c-4.3,20.6 16.3,41.200001 36.900001,36.900001c15.5,-3.2 27.5,-19 26,-33.900001c-1.1,-10.5 -9,-21.3 -19,-26.2c-6.1,-2.9 -15.5,-3.6 -21.7,-1.6z" fill="#40e0d0" id="svg_14"/>
  <path d="m439.000007,161.499983c-10.5,3.5 -20,14.1 -22.2,24.8c-4.3,20.6 16.3,41.200001 36.900001,36.900001c15.5,-3.2 27.5,-19 26,-33.900001c-1.1,-10.5 -9,-21.3 -19,-26.2c-6.1,-2.9 -15.5,-3.6 -21.7,-1.6z" fill="#40e0d0" id="svg_15"/>
  <path d="m567.000008,161.499983c-10.5,3.5 -20,14.1 -22.2,24.8c-4.3,20.6 16.3,41.200001 36.900001,36.900001c15.5,-3.2 27.5,-19 26,-33.900001c-1.1,-10.5 -9,-21.3 -19,-26.2c-6.1,-2.9 -15.5,-3.6 -21.7,-1.6z" fill="#40e0d0" id="svg_16"/>
  <path d="m695.00001,161.499983c-10.5,3.5 -20,14.1 -22.2,24.8c-4.3,20.6 16.3,41.200001 36.900001,36.900001c15.5,-3.2 27.5,-19 26,-33.900001c-1.1,-10.5 -9,-21.3 -19,-26.2c-6.1,-2.9 -15.5,-3.6 -21.7,-1.6z" fill="#40e0d0" id="svg_17"/>
  <path d="m823.000012,161.499983c-10.5,3.5 -20,14.1 -22.2,24.8c-4.3,20.6 16.3,41.200001 36.900001,36.900001c15.5,-3.2 27.5,-19 26,-33.900001c-1.1,-10.5 -9,-21.3 -19,-26.2c-6.1,-2.9 -15.5,-3.6 -21.7,-1.6z" fill="#40e0d0" id="svg_18"/>
  <path d="m951.000014,161.499983c-10.5,3.5 -20,14.1 -22.2,24.8c-4.3,20.6 16.3,41.200001 36.900001,36.900001c15.5,-3.2 27.5,-19 26,-33.900001c-1.1,-10.5 -9,-21.3 -19,-26.2c-6.1,-2.9 -15.5,-3.6 -21.7,-1.6z" fill="#40e0d0" id="svg_19"/>
  <path d="m1079.000016,161.499983c-10.5,3.5 -20,14.1 -22.2,24.8c-2.5,11.7 3.2,24.4 14.2,31.9c10.7,7.4 22.9,7.5 33.700001,0.3c17.7,-11.8 20.1,-33.800001 5.3,-48.500001c-8.5,-8.6 -20.7,-11.9 -31,-8.5z" fill="#40e0d0" id="svg_20"/>
  <path d="m1207.000018,161.499983c-10.5,3.5 -20,14.1 -22.2,24.8c-2.5,11.7 3.2,24.4 14.2,31.9c10.7,7.4 22.9,7.5 33.700001,0.3c17.7,-11.8 20.1,-33.800001 5.3,-48.500001c-8.5,-8.6 -20.7,-11.9 -31,-8.5z" fill="#40e0d0" id="svg_21"/>
  <path d="m55.000001,289.499985c-10.5,3.5 -20,14.1 -22.2,24.8c-4.3,20.6 16.3,41.200001 36.900001,36.900001c15.5,-3.2 27.5,-19 26,-33.900001c-1.1,-10.5 -9,-21.3 -19,-26.2c-6.1,-2.9 -15.5,-3.6 -21.7,-1.6z" fill="#40e0d0" id="svg_22"/>
  <path d="m183.000003,289.499985c-10.5,3.5 -20,14.1 -22.2,24.8c-4.3,20.6 16.3,41.200001 36.900001,36.900001c15.5,-3.2 27.5,-19 26,-33.900001c-1.1,-10.5 -9,-21.3 -19,-26.2c-6.1,-2.9 -15.5,-3.6 -21.7,-1.6z" fill="#40e0d0" id="svg_23"/>
  <path d="m311.000005,289.499985c-10.5,3.5 -20,14.1 -22.2,24.8c-4.3,20.6 16.3,41.200001 36.900001,36.900001c15.5,-3.2 27.5,-19 26,-33.900001c-1.1,-10.5 -9,-21.3 -19,-26.2c-6.1,-2.9 -15.5,-3.6 -21.7,-1.6z" fill="#40e0d0" id="svg_24"/>
  <path d="m439.000007,289.499985c-10.5,3.5 -20,14.1 -22.2,24.8c-4.3,20.6 16.3,41.200001 36.900001,36.900001c15.5,-3.2 27.5,-19 26,-33.900001c-1.1,-10.5 -9,-21.3 -19,-26.2c-6.1,-2.9 -15.5,-3.6 -21.7,-1.6z" fill="#40e0d0" id="svg_25"/>
  <path d="m567.000008,289.499985c-10.5,3.5 -20,14.1 -22.2,24.8c-4.3,20.6 16.3,41.200001 36.900001,36.900001c15.5,-3.2 27.5,-19 26,-33.900001c-1.1,-10.5 -9,-21.3 -19,-26.2c-6.1,-2.9 -15.5,-3.6 -21.7,-1.6z" fill="#40e0d0" id="svg_26"/>
  <path d="m695.00001,289.499985c-10.5,3.5 -20,14.1 -22.2,24.8c-4.3,20.6 16.3,41.200001 36.900001,36.900001c15.5,-3.2 27.5,-19 26,-33.900001c-1.1,-10.5 -9,-21.3 -19,-26.2c-6.1,-2.9 -15.5,-3.6 -21.7,-1.6z" fill="#40e0d0" id="svg_27"/>
  <path d="m823.000012,289.499985c-10.5,3.5 -20,14.1 -22.2,24.8c-4.3,20.6 16.3,41.200001 36.900001,36.900001c15.5,-3.2 27.5,-19 26,-33.900001c-1.1,-10.5 -9,-21.3 -19,-26.2c-6.1,-2.9 -15.5,-3.6 -21.7,-1.6z" fill="#40e0d0" id="svg_28"/>
  <path d="m951.000014,289.499985c-10.5,3.5 -20,14.1 -22.2,24.8c-4.3,20.6 16.3,41.200001 36.900001,36.900001c15.5,-3.2 27.5,-19 26,-33.900001c-1.1,-10.5 -9,-21.3 -19,-26.2c-6.1,-2.9 -15.5,-3.6 -21.7,-1.6z" fill="#40e0d0" id="svg_29"/>
  <path d="m1079.000016,289.499985c-10.5,3.5 -20,14.1 -22.2,24.8c-4.3,20.6 16.3,41.200001 36.900001,36.900001c15.5,-3.2 27.5,-19 26,-33.900001c-1.1,-10.5 -9,-21.3 -19,-26.2c-6.1,-2.9 -15.5,-3.6 -21.7,-1.6z" fill="#40e0d0" id="svg_30"/>
  <path d="m1207.000018,289.499985c-10.5,3.5 -20,14.1 -22.2,24.8c-4.3,20.6 16.3,41.200001 36.900001,36.900001c15.5,-3.2 27.5,-19 26,-33.900001c-1.1,-10.5 -9,-21.3 -19,-26.2c-6.1,-2.9 -15.5,-3.6 -21.7,-1.6z" fill="#40e0d0" id="svg_31"/>
  <path d="m55.000001,417.499987c-10.5,3.5 -20,14.1 -22.2,24.8c-4.3,20.6 16.3,41.200001 36.900001,36.900001c15.5,-3.2 27.5,-19 26,-33.900001c-1.1,-10.5 -9,-21.3 -19,-26.2c-6.1,-2.9 -15.5,-3.6 -21.7,-1.6z" fill="#40e0d0" id="svg_32"/>
  <path d="m183.000003,417.499987c-10.5,3.5 -20,14.1 -22.2,24.8c-4.3,20.6 16.3,41.200001 36.900001,36.900001c15.5,-3.2 27.5,-19 26,-33.900001c-1.1,-10.5 -9,-21.3 -19,-26.2c-6.1,-2.9 -15.5,-3.6 -21.7,-1.6z" fill="#40e0d0" id="svg_33"/>
  <path d="m311.000005,417.499987c-10.5,3.5 -20,14.1 -22.2,24.8c-4.3,20.6 16.3,41.200001 36.900001,36.900001c15.5,-3.2 27.5,-19 26,-33.900001c-1.1,-10.5 -9,-21.3 -19,-26.2c-6.1,-2.9 -15.5,-3.6 -21.7,-1.6z" fill="#40e0d0" id="svg_34"/>
  <path d="m439.000007,417.499987c-10.5,3.5 -20,14.1 -22.2,24.8c-4.3,20.6 16.3,41.200001 36.900001,36.900001c15.5,-3.2 27.5,-19 26,-33.900001c-1.1,-10.5 -9,-21.3 -19,-26.2c-6.1,-2.9 -15.5,-3.6 -21.7,-1.6z" fill="#40e0d0" id="svg_35"/>
  <path d="m567.000008,417.499987c-10.5,3.5 -20,14.1 -22.2,24.8c-4.3,20.6 16.3,41.200001 36.900001,36.900001c15.5,-3.2 27.5,-19 26,-33.900001c-1.1,-10.5 -9,-21.3 -19,-26.2c-6.1,-2.9 -15.5,-3.6 -21.7,-1.6z" fill="#40e0d0" id="svg_36"/>
  <path d="m695.00001,417.499987c-10.5,3.5 -20,14.1 -22.2,24.8c-4.3,20.6 16.3,41.200001 36.900001,36.900001c15.5,-3.2 27.5,-19 26,-33.900001c-1.1,-10.5 -9,-21.3 -19,-26.2c-6.1,-2.9 -15.5,-3.6 -21.7,-1.6z" fill="#40e0d0" id="svg_37"/>
  <path d="m823.000012,417.499987c-10.5,3.5 -20,14.1 -22.2,24.8c-4.3,20.6 16.3,41.200001 36.900001,36.900001c15.5,-3.2 27.5,-19 26,-33.900001c-1.1,-10.5 -9,-21.3 -19,-26.2c-6.1,-2.9 -15.5,-3.6 -21.7,-1.6z" fill="#40e0d0" id="svg_38"/>
  <path d="m951.000014,417.499987c-10.5,3.5 -20,14.1 -22.2,24.8c-4.3,20.6 16.3,41.200001 36.900001,36.900001c15.5,-3.2 27.5,-19 26,-33.900001c-1.1,-10.5 -9,-21.3 -19,-26.2c-6.1,-2.9 -15.5,-3.6 -21.7,-1.6z" fill="#40e0d0" id="svg_39"/>
  <path d="m1079.000016,417.499987c-10.5,3.5 -20,14.1 -22.2,24.8c-4.3,20.6 16.3,41.200001 36.900001,36.900001c15.5,-3.2 27.5,-19 26,-33.900001c-1.1,-10.5 -9,-21.3 -19,-26.2c-6.1,-2.9 -15.5,-3.6 -21.7,-1.6z" fill="#40e0d0" id="svg_40"/>
  <path d="m1207.000018,417.499987c-10.5,3.5 -20,14.1 -22.2,24.8c-4.3,20.6 16.3,41.200001 36.900001,36.900001c15.5,-3.2 27.5,-19 26,-33.900001c-1.1,-10.5 -9,-21.3 -19,-26.2c-6.1,-2.9 -15.5,-3.6 -21.7,-1.6z" fill="#40e0d0" id="svg_41"/>
  <path d="m55.000001,545.499989c-10.5,3.5 -20,14.1 -22.2,24.8c-4.3,20.6 16.3,41.200001 36.900001,36.900001c15.5,-3.2 27.5,-19 26,-33.900001c-1.1,-10.5 -9,-21.3 -19,-26.2c-6.1,-2.9 -15.5,-3.6 -21.7,-1.6z" fill="#40e0d0" id="svg_42"/>
  <path d="m183.000003,545.499989c-10.5,3.5 -20,14.1 -22.2,24.8c-4.3,20.6 16.3,41.200001 36.900001,36.900001c15.5,-3.2 27.5,-19 26,-33.900001c-1.1,-10.5 -9,-21.3 -19,-26.2c-6.1,-2.9 -15.5,-3.6 -21.7,-1.6z" fill="#40e0d0" id="svg_43"/>
  <path d="m311.000005,545.499989c-10.5,3.5 -20,14.1 -22.2,24.8c-4.3,20.6 16.3,41.200001 36.900001,36.900001c15.5,-3.2 27.5,-19 26,-33.900001c-1.1,-10.5 -9,-21.3 -19,-26.2c-6.1,-2.9 -15.5,-3.6 -21.7,-1.6z" fill="#40e0d0" id="svg_44"/>
  <path d="m439.000007,545.499989c-10.5,3.5 -20,14.1 -22.2,24.8c-4.3,20.6 16.3,41.200001 36.900001,36.900001c15.5,-3.2 27.5,-19 26,-33.900001c-1.1,-10.5 -9,-21.3 -19,-26.2c-6.1,-2.9 -15.5,-3.6 -21.7,-1.6z" fill="#40e0d0" id="svg_45"/>
  <path d="m567.000008,545.499989c-10.5,3.5 -20,14.1 -22.2,24.8c-4.3,20.6 16.3,41.200001 36.900001,36.900001c15.5,-3.2 27.5,-19 26,-33.900001c-1.1,-10.5 -9,-21.3 -19,-26.2c-6.1,-2.9 -15.5,-3.6 -21.7,-1.6z" fill="#40e0d0" id="svg_46"/>
  <path d="m695.00001,545.499989c-10.5,3.5 -20,14.1 -22.2,24.8c-4.3,20.6 16.3,41.200001 36.900001,36.900001c15.5,-3.2 27.5,-19 26,-33.900001c-1.1,-10.5 -9,-21.3 -19,-26.2c-6.1,-2.9 -15.5,-3.6 -21.7,-1.6z" fill="#40e0d0" id="svg_47"/>
  <path d="m823.000012,545.499989c-10.5,3.5 -20,14.1 -22.2,24.8c-4.3,20.6 16.3,41.200001 36.900001,36.900001c15.5,-3.2 27.5,-19 26,-33.900001c-1.1,-10.5 -9,-21.3 -19,-26.2c-6.1,-2.9 -15.5,-3.6 -21.7,-1.6z" fill="#40e0d0" id="svg_48"/>
  <path d="m951.000014,545.499989c-10.5,3.5 -20,14.1 -22.2,24.8c-4.3,20.6 16.3,41.200001 36.900001,36.900001c15.5,-3.2 27.5,-19 26,-33.900001c-1.1,-10.5 -9,-21.3 -19,-26.2c-6.1,-2.9 -15.5,-3.6 -21.7,-1.6z" fill="#40e0d0" id="svg_49"/>
  <path d="m1079.000016,545.499989c-10.5,3.5 -20,14.1 -22.2,24.8c-4.3,20.6 16.3,41.200001 36.900001,36.900001c15.5,-3.2 27.5,-19 26,-33.900001c-1.1,-10.5 -9,-21.3 -19,-26.2c-6.1,-2.9 -15.5,-3.6 -21.7,-1.6z" fill="#40e0d0" id="svg_50"/>
  <path d="m1207.000018,545.499989c-10.5,3.5 -20,14.1 -22.2,24.8c-4.3,20.6 16.3,41.200001 36.900001,36.900001c15.5,-3.2 27.5,-19 26,-33.900001c-1.1,-10.5 -9,-21.3 -19,-26.2c-6.1,-2.9 -15.5,-3.6 -21.7,-1.6z" fill="#40e0d0" id="svg_51"/>
  <path d="m55.000001,673.499991c-10.5,3.5 -20,14.1 -22.2,24.8c-4.3,20.6 16.3,41.200001 36.900001,36.900001c15.5,-3.2 27.5,-19 26,-33.900001c-1.1,-10.5 -9,-21.3 -19,-26.2c-6.1,-2.9 -15.5,-3.6 -21.7,-1.6z" fill="#40e0d0" id="svg_52"/>
  <path d="m183.000003,673.499991c-10.5,3.5 -20,14.1 -22.2,24.8c-4.3,20.6 16.3,41.200001 36.900001,36.900001c15.5,-3.2 27.5,-19 26,-33.900001c-1.1,-10.5 -9,-21.3 -19,-26.2c-6.1,-2.9 -15.5,-3.6 -21.7,-1.6z" fill="#40e0d0" id="svg_53"/>
  <path d="m311.000005,673.499991c-10.5,3.5 -20,14.1 -22.2,24.8c-4.3,20.6 16.3,41.200001 36.900001,36.900001c15.5,-3.2 27.5,-19 26,-33.900001c-1.1,-10.5 -9,-21.3 -19,-26.2c-6.1,-2.9 -15.5,-3.6 -21.7,-1.6z" fill="#40e0d0" id="svg_54"/>
  <path d="m439.000007,673.499991c-10.5,3.5 -20,14.1 -22.2,24.8c-4.3,20.6 16.3,41.200001 36.900001,36.900001c15.5,-3.2 27.5,-19 26,-33.900001c-1.1,-10.5 -9,-21.3 -19,-26.2c-6.1,-2.9 -15.5,-3.6 -21.7,-1.6z" fill="#40e0d0" id="svg_55"/>
  <path d="m567.000008,673.499991c-10.5,3.5 -20,14.1 -22.2,24.8c-4.3,20.6 16.3,41.200001 36.900001,36.900001c15.5,-3.2 27.5,-19 26,-33.900001c-1.1,-10.5 -9,-21.3 -19,-26.2c-6.1,-2.9 -15.5,-3.6 -21.7,-1.6z" fill="#40e0d0" id="svg_56"/>
  <path d="m695.00001,673.499991c-10.5,3.5 -20,14.1 -22.2,24.8c-4.3,20.6 16.3,41.200001 36.900001,36.900001c15.5,-3.2 27.5,-19 26,-33.900001c-1.1,-10.5 -9,-21.3 -19,-26.2c-6.1,-2.9 -15.5,-3.6 -21.7,-1.6z" fill="#40e0d0" id="svg_57"/>
  <path d="m823.000012,673.499991c-10.5,3.5 -20,14.1 -22.2,24.8c-4.3,20.6 16.3,41.200001 36.900001,36.900001c15.5,-3.2 27.5,-19 26,-33.900001c-1.1,-10.5 -9,-21.3 -19,-26.2c-6.1,-2.9 -15.5,-3.6 -21.7,-1.6z" fill="#40e0d0" id="svg_58"/>
  <path d="m951.000014,673.499991c-10.5,3.5 -20,14.1 -22.2,24.8c-4.3,20.6 16.3,41.200001 36.900001,36.900001c15.5,-3.2 27.5,-19 26,-33.900001c-1.1,-10.5 -9,-21.3 -19,-26.2c-6.1,-2.9 -15.5,-3.6 -21.7,-1.6z" fill="#40e0d0" id="svg_59"/>
  <path d="m1079.000016,673.499991c-10.5,3.5 -20,14.1 -22.2,24.8c-4.3,20.6 16.3,41.200001 36.900001,36.900001c15.5,-3.2 27.5,-19 26,-33.900001c-1.1,-10.5 -9,-21.3 -19,-26.2c-6.1,-2.9 -15.5,-3.6 -21.7,-1.6z" fill="#40e0d0" id="svg_60"/>
  <path d="m1207.000018,673.499991c-10.5,3.5 -20,14.1 -22.2,24.8c-4.3,20.6 16.3,41.200001 36.900001,36.900001c15.5,-3.2 27.5,-19 26,-33.900001c-1.1,-10.5 -9,-21.3 -19,-26.2c-6.1,-2.9 -15.5,-3.6 -21.7,-1.6z" fill="#40e0d0" id="svg_61"/>
  <path d="m55.000001,801.499993c-10.5,3.5 -20,14.1 -22.2,24.8c-4.3,20.6 16.3,41.200001 36.900001,36.900001c15.5,-3.2 27.5,-19 26,-33.900001c-1.1,-10.5 -9,-21.3 -19,-26.2c-6.1,-2.9 -15.5,-3.6 -21.7,-1.6z" fill="#40e0d0" id="svg_62"/>
  <path d="m183.000003,801.499993c-10.5,3.5 -20,14.1 -22.2,24.8c-4.3,20.6 16.3,41.200001 36.900001,36.900001c15.5,-3.2 27.5,-19 26,-33.900001c-1.1,-10.5 -9,-21.3 -19,-26.2c-6.1,-2.9 -15.5,-3.6 -21.7,-1.6z" fill="#40e0d0" id="svg_63"/>
  <path d="m311.000005,801.499993c-10.5,3.5 -20,14.1 -22.2,24.8c-2.5,11.7 3.2,24.4 14.2,31.9c10.7,7.4 22.9,7.5 33.700001,0.3c17.7,-11.8 20.1,-33.800001 5.3,-48.500001c-8.5,-8.6 -20.7,-11.9 -31,-8.5z" fill="#40e0d0" id="svg_64"/>
  <path d="m439.000007,801.499993c-10.5,3.5 -20,14.1 -22.2,24.8c-2.5,11.7 3.2,24.4 14.2,31.9c10.7,7.4 22.9,7.5 33.700001,0.3c17.7,-11.8 20.1,-33.800001 5.3,-48.500001c-8.5,-8.6 -20.7,-11.9 -31,-8.5z" fill="#40e0d0" id="svg_65"/>
  <path d="m567.000008,801.499993c-15.1,5 -25.3,21.6 -22.2,36.200001c2.5,11.9 13.6,23 25.5,25.5c19.3,4.1 39.400001,-14.2 37.400001,-33.900001c-1.1,-10.5 -9,-21.3 -19,-26.2c-6.1,-2.9 -15.5,-3.6 -21.7,-1.6z" fill="#40e0d0" id="svg_66"/>
  <path d="m695.00001,801.499993c-15.1,5 -25.3,21.6 -22.2,36.200001c2.5,11.9 13.6,23 25.5,25.5c19.3,4.1 39.400001,-14.2 37.400001,-33.900001c-1.1,-10.5 -9,-21.3 -19,-26.2c-6.1,-2.9 -15.5,-3.6 -21.7,-1.6z" fill="#40e0d0" id="svg_67"/>
  <path d="m823.000012,801.499993c-15.1,5 -25.3,21.6 -22.2,36.200001c2.5,11.9 13.6,23 25.5,25.5c19.3,4.1 39.400001,-14.2 37.400001,-33.900001c-1.1,-10.5 -9,-21.3 -19,-26.2c-6.1,-2.9 -15.5,-3.6 -21.7,-1.6z" fill="#40e0d0" id="svg_68"/>
  <path d="m951.000014,801.499993c-15.1,5 -25.3,21.6 -22.2,36.200001c2.5,11.9 13.6,23 25.5,25.5c19.3,4.1 39.400001,-14.2 37.400001,-33.900001c-1.1,-10.5 -9,-21.3 -19,-26.2c-6.1,-2.9 -15.5,-3.6 -21.7,-1.6z" fill="#40e0d0" id="svg_69"/>
  <path d="m1079.000016,801.499993c-10.5,3.5 -20,14.1 -22.2,24.8c-4.3,20.6 16.3,41.200001 36.900001,36.900001c15.5,-3.2 27.5,-19 26,-33.900001c-1.1,-10.5 -9,-21.3 -19,-26.2c-6.1,-2.9 -15.5,-3.6 -21.7,-1.6z" fill="#40e0d0" id="svg_70"/>
  <path d="m1207.000018,801.499993c-10.5,3.5 -20,14.1 -22.2,24.8c-4.3,20.6 16.3,41.200001 36.900001,36.900001c15.5,-3.2 27.5,-19 26,-33.900001c-1.1,-10.5 -9,-21.3 -19,-26.2c-6.1,-2.9 -15.5,-3.6 -21.7,-1.6z" fill="#40e0d0" id="svg_71"/>
  <path d="m55.000001,929.499995c-10.5,3.5 -20,14.1 -22.2,24.8c-4.3,20.6 16.3,41.200001 36.900001,36.900001c15.5,-3.2 27.5,-19 26,-33.900001c-1.1,-10.5 -9,-21.3 -19,-26.2c-6.1,-2.9 -15.5,-3.6 -21.7,-1.6z" fill="#40e0d0" id="svg_72"/>
  <path d="m183.000003,929.499995c-10.5,3.5 -20,14.1 -22.2,24.8c-4.3,20.6 16.3,41.200001 36.900001,36.900001c15.5,-3.2 27.5,-19 26,-33.900001c-1.1,-10.5 -9,-21.3 -19,-26.2c-6.1,-2.9 -15.5,-3.6 -21.7,-1.6z" fill="#40e0d0" id="svg_73"/>
  <path d="m311.000005,929.499995c-10.5,3.5 -20,14.1 -22.2,24.8c-2.5,11.7 3.2,24.4 14.2,31.9c10.7,7.4 22.9,7.5 33.700001,0.3c17.7,-11.8 20.1,-33.800001 5.3,-48.500001c-8.5,-8.6 -20.7,-11.9 -31,-8.5z" fill="#40e0d0" id="svg_74"/>
  <path d="m439.000007,929.499995c-10.5,3.5 -20,14.1 -22.2,24.8c-2.5,11.7 3.2,24.4 14.2,31.9c10.7,7.4 22.9,7.5 33.700001,0.3c17.7,-11.8 20.1,-33.800001 5.3,-48.500001c-8.5,-8.6 -20.7,-11.9 -31,-8.5z" fill="#40e0d0" id="svg_75"/>
  <path d="m567.000008,929.499995c-15.1,5 -25.3,21.6 -22.2,36.200001c2.5,11.9 13.6,23 25.5,25.5c19.3,4.1 39.400001,-14.2 37.400001,-33.900001c-1.1,-10.5 -9,-21.3 -19,-26.2c-6.1,-2.9 -15.5,-3.6 -21.7,-1.6z" fill="#40e0d0" id="svg_76"/>
  <path d="m695.00001,929.499995c-15.1,5 -25.3,21.6 -22.2,36.200001c2.5,11.9 13.6,23 25.5,25.5c19.3,4.1 39.400001,-14.2 37.400001,-33.900001c-1.1,-10.5 -9,-21.3 -19,-26.2c-6.1,-2.9 -15.5,-3.6 -21.7,-1.6z" fill="#40e0d0" id="svg_77"/>
  <path d="m823.000012,929.499995c-15.1,5 -25.3,21.6 -22.2,36.200001c2.5,11.9 13.6,23 25.5,25.5c19.3,4.1 39.400001,-14.2 37.400001,-33.900001c-1.1,-10.5 -9,-21.3 -19,-26.2c-6.1,-2.9 -15.5,-3.6 -21.7,-1.6z" fill="#40e0d0" id="svg_78"/>
  <path d="m951.000014,929.499995c-15.1,5 -25.3,21.6 -22.2,36.200001c2.5,11.9 13.6,23 25.5,25.5c19.3,4.1 39.400001,-14.2 37.400001,-33.900001c-1.1,-10.5 -9,-21.3 -19,-26.2c-6.1,-2.9 -15.5,-3.6 -21.7,-1.6z" fill="#40e0d0" id="svg_79"/>
  <path d="m1079.000016,929.499995c-10.5,3.5 -20,14.1 -22.2,24.8c-4.3,20.6 16.3,41.200001 36.900001,36.900001c15.5,-3.2 27.5,-19 26,-33.900001c-1.1,-10.5 -9,-21.3 -19,-26.2c-6.1,-2.9 -15.5,-3.6 -21.7,-1.6z" fill="#40e0d0" id="svg_80"/>
  <path d="m1207.000018,929.499995c-10.5,3.5 -20,14.1 -22.2,24.8c-4.3,20.6 16.3,41.200001 36.900001,36.900001c15.5,-3.2 27.5,-19 26,-33.900001c-1.1,-10.5 -9,-21.3 -19,-26.2c-6.1,-2.9 -15.5,-3.6 -21.7,-1.6z" fill="#40e0d0" id="svg_81"/>
  <path d="m55.000001,1057.499997c-10.5,3.5 -20,14.1 -22.2,24.8c-4.3,20.6 16.3,41.200001 36.900001,36.900001c15.5,-3.2 27.5,-19 26,-33.900001c-1.1,-10.5 -9,-21.3 -19,-26.2c-6.1,-2.9 -15.5,-3.6 -21.7,-1.6z" fill="#40e0d0" id="svg_82"/>
  <path d="m183.000003,1057.499997c-10.5,3.5 -20,14.1 -22.2,24.8c-4.3,20.6 16.3,41.200001 36.900001,36.900001c15.5,-3.2 27.5,-19 26,-33.900001c-1.1,-10.5 -9,-21.3 -19,-26.2c-6.1,-2.9 -15.5,-3.6 -21.7,-1.6z" fill="#40e0d0" id="svg_83"/>
  <path d="m311.000005,1057.499997c-10.5,3.5 -20,14.1 -22.2,24.8c-2.5,11.7 3.2,24.4 14.2,31.9c10.7,7.4 22.9,7.5 33.700001,0.3c17.7,-11.8 20.1,-33.800001 5.3,-48.500001c-8.5,-8.6 -20.7,-11.9 -31,-8.5z" fill="#40e0d0" id="svg_84"/>
  <path d="m439.000007,1057.499997c-10.5,3.5 -20,14.1 -22.2,24.8c-2.5,11.7 3.2,24.4 14.2,31.9c10.7,7.4 22.9,7.5 33.700001,0.3c17.7,-11.8 20.1,-33.800001 5.3,-48.500001c-8.5,-8.6 -20.7,-11.9 -31,-8.5z" fill="#40e0d0" id="svg_85"/>
  <path d="m567.000008,1057.499997c-10.5,3.5 -20,14.1 -22.2,24.8c-4.3,20.6 16.3,41.200001 36.900001,36.900001c15.5,-3.2 27.5,-19 26,-33.900001c-1.1,-10.5 -9,-21.3 -19,-26.2c-6.1,-2.9 -15.5,-3.6 -21.7,-1.6z" fill="#40e0d0" id="svg_86"/>
  <path d="m695.00001,1057.499997c-10.5,3.5 -20,14.1 -22.2,24.8c-4.3,20.6 16.3,41.200001 36.900001,36.900001c15.5,-3.2 27.5,-19 26,-33.900001c-1.1,-10.5 -9,-21.3 -19,-26.2c-6.1,-2.9 -15.5,-3.6 -21.7,-1.6z" fill="#40e0d0" id="svg_87"/>
  <path d="m823.000012,1057.499997c-10.5,3.5 -20,14.1 -22.2,24.8c-4.3,20.6 16.3,41.200001 36.900001,36.900001c15.5,-3.2 27.5,-19 26,-33.900001c-1.1,-10.5 -9,-21.3 -19,-26.2c-6.1,-2.9 -15.5,-3.6 -21.7,-1.6z" fill="#40e0d0" id="svg_88"/>
  <path d="m951.000014,1057.499997c-10.5,3.5 -20,14.1 -22.2,24.8c-4.3,20.6 16.3,41.200001 36.900001,36.900001c15.5,-3.2 27.5,-19 26,-33.900001c-1.1,-10.5 -9,-21.3 -19,-26.2c-6.1,-2.9 -15.5,-3.6 -21.7,-1.6z" fill="#40e0d0" id="svg_89"/>
  <path d="m1079.000016,1057.499997c-10.5,3.5 -20,14.1 -22.2,24.8c-4.3,20.6 16.3,41.200001 36.900001,36.900001c15.5,-3.2 27.5,-19 26,-33.900001c-1.1,-10.5 -9,-21.3 -19,-26.2c-6.1,-2.9 -15.5,-3.6 -21.7,-1.6z" fill="#40e0d0" id="svg_90"/>
  <path d="m1207.000018,1057.499997c-10.5,3.5 -20,14.1 -22.2,24.8c-4.3,20.6 16.3,41.200001 36.900001,36.900001c15.5,-3.2 27.5,-19 26,-33.900001c-1.1,-10.5 -9,-21.3 -19,-26.2c-6.1,-2.9 -15.5,-3.6 -21.7,-1.6z" fill="#40e0d0" id="svg_91"/>
  <path d="m55.000001,1185.499999c-10.5,3.5 -20,14.1 -22.2,24.8c-4.3,20.6 16.3,41.200001 36.900001,36.900001c15.5,-3.2 27.5,-19 26,-33.900001c-1.1,-10.5 -9,-21.3 -19,-26.2c-6.1,-2.9 -15.5,-3.6 -21.7,-1.6z" fill="#40e0d0" id="svg_92"/>
  <path d="m183.000003,1185.499999c-10.5,3.5 -20,14.1 -22.2,24.8c-4.3,20.6 16.3,41.200001 36.900001,36.900001c15.5,-3.2 27.5,-19 26,-33.900001c-1.1,-10.5 -9,-21.3 -19,-26.2c-6.1,-2.9 -15.5,-3.6 -21.7,-1.6z" fill="#40e0d0" id="svg_93"/>
  <path d="m311.000005,1185.499999c-10.5,3.5 -20,14.1 -22.2,24.8c-4.3,20.6 16.3,41.200001 36.900001,36.900001c15.5,-3.2 27.5,-19 26,-33.900001c-1.1,-10.5 -9,-21.3 -19,-26.2c-6.1,-2.9 -15.5,-3.6 -21.7,-1.6z" fill="#40e0d0" id="svg_94"/>
  <path d="m439.000007,1185.499999c-10.5,3.5 -20,14.1 -22.2,24.8c-4.3,20.6 16.3,41.200001 36.900001,36.900001c15.5,-3.2 27.5,-19 26,-33.900001c-1.1,-10.5 -9,-21.3 -19,-26.2c-6.1,-2.9 -15.5,-3.6 -21.7,-1.6z" fill="#40e0d0" id="svg_95"/>
  <path d="m567.000008,1185.499999c-10.5,3.5 -20,14.1 -22.2,24.8c-4.3,20.6 16.3,41.200001 36.900001,36.900001c15.5,-3.2 27.5,-19 26,-33.900001c-1.1,-10.5 -9,-21.3 -19,-26.2c-6.1,-2.9 -15.5,-3.6 -21.7,-1.6z" fill="#40e0d0" id="svg_96"/>
  <path d="m695.00001,1185.499999c-10.5,3.5 -20,14.1 -22.2,24.8c-4.3,20.6 16.3,41.200001 36.900001,36.900001c15.5,-3.2 27.5,-19 26,-33.900001c-1.1,-10.5 -9,-21.3 -19,-26.2c-6.1,-2.9 -15.5,-3.6 -21.7,-1.6z" fill="#40e0d0" id="svg_97"/>
  <path d="m823.000012,1185.499999c-10.5,3.5 -20,14.1 -22.2,24.8c-4.3,20.6 16.3,41.200001 36.900001,36.900001c15.5,-3.2 27.5,-19 26,-33.900001c-1.1,-10.5 -9,-21.3 -19,-26.2c-6.1,-2.9 -15.5,-3.6 -21.7,-1.6z" fill="#40e0d0" id="svg_98"/>
  <path d="m951.000014,1185.499999c-10.5,3.5 -20,14.1 -22.2,24.8c-4.3,20.6 16.3,41.200001 36.900001,36.900001c15.5,-3.2 27.5,-19 26,-33.900001c-1.1,-10.5 -9,-21.3 -19,-26.2c-6.1,-2.9 -15.5,-3.6 -21.7,-1.6z" fill="#40e0d0" id="svg_99"/>
  <path d="m1079.000016,1185.499999c-10.5,3.5 -20,14.1 -22.2,24.8c-4.3,20.6 16.3,41.200001 36.900001,36.900001c15.5,-3.2 27.5,-19 26,-33.900001c-1.1,-10.5 -9,-21.3 -19,-26.2c-6.1,-2.9 -15.5,-3.6 -21.7,-1.6z" fill="#40e0d0" id="svg_100"/>
  <path d="m1207.000018,1185.499999c-10.5,3.5 -20,14.1 -22.2,24.8c-4.3,20.6 16.3,41.200001 36.900001,36.900001c15.5,-3.2 27.5,-19 26,-33.900001c-1.1,-10.5 -9,-21.3 -19,-26.2c-6.1,-2.9 -15.5,-3.6 -21.7,-1.6z" fill="#40e0d0" id="svg_101"/>
 </g>
</svg>