<svg xmlns="http://www.w3.org/2000/svg" version="1.1" xmlns:xlink="http://www.w3.org/1999/xlink" xmlns:svgjs="http://svgjs.com/svgjs" width="1440" height="560" preserveAspectRatio="none" viewBox="0 0 1440 560"><g mask="url(&quot;#SvgjsMask1038&quot;)" fill="none"><rect width="1440" height="560" x="0" y="0" fill="rgba(46, 64, 87, 1)"></rect><path d="M0,506.09C126.739,540.019,257.363,640.418,377.099,586.777C494.512,534.177,510.197,374.347,559.416,255.477C606.824,140.982,695.102,23.846,659.309,-94.794C623.52,-213.422,465.319,-239.276,382.38,-331.334C301.851,-420.717,292.071,-572.533,183.052,-623.417C72.679,-674.933,-54.89,-618.622,-173.466,-590.772C-298.704,-561.358,-462.036,-567.687,-527.001,-456.649C-594.141,-341.893,-465.035,-201.081,-478.829,-68.845C-491.757,55.083,-653.515,161.486,-603.381,275.555C-553.481,389.09,-382.238,370.247,-266.389,414.51C-176.863,448.715,-92.578,481.306,0,506.09" fill="#2b3c52"></path><path d="M1440 989.03C1521.319 973.929 1600.18 961.194 1674.479 924.857 1756.997 884.5 1849.811 847.898 1893.6399999999999 767.17 1938.2930000000001 684.924 1907.856 586.116 1909.193 492.54 1910.812 379.18399999999997 1975.2240000000002 246.214 1902.321 159.39600000000002 1829.643 72.846 1687.817 113.98599999999999 1576.234 96.031 1480.592 80.64100000000002 1383.722 25.890999999999963 1293.612 61.44900000000001 1204.683 96.541 1184.523 212.817 1114.724 278.146 1032.998 354.639 886.8 369.183 851.372 475.368 816.436 580.078 893.623 688.3820000000001 945.31 785.917 994.473 878.69 1044.845 983.863 1141.971 1023.742 1236.403 1062.5149999999999 1339.634 1007.668 1440 989.03" fill="#31445c"></path></g><defs><mask id="SvgjsMask1038"><rect width="1440" height="560" fill="#ffffff"></rect></mask></defs></svg>